<?xml version="1.0" encoding="UTF-8" standalone="no"?>
<svg width="89px" height="50px" viewBox="0 0 89 50" version="1.1" xmlns="http://www.w3.org/2000/svg" xmlns:xlink="http://www.w3.org/1999/xlink">
    <!-- Generator: Sketch 46.2 (44496) - http://www.bohemiancoding.com/sketch -->
    <title>Logo</title>
    <desc>Created with Sketch.</desc>
    <defs></defs>
    <g id="Homepage" stroke="none" stroke-width="1" fill="none" fill-rule="evenodd">
        <g id="Homepage-Desktop" transform="translate(-40.000000, -21.000000)" fill="#FFFFFF">
            <g id="Header" transform="translate(40.000000, 21.000000)">
                <g id="Logo">
                    <g id="Icon">
                        <g id="Left">
                            <path d="M44.9555272,10.5631668 L42.9283496,12.0107561 C42.2011519,10.9741123 41.3833363,9.99544189 40.4789945,9.08301536 C31.7870097,0.313324384 17.6945178,0.313324384 9.00253294,9.08301536 C0.310548092,17.8527063 0.310548092,32.0711847 9.00253294,40.8408757 C17.6945178,49.6105667 31.7870097,49.6105667 40.4789945,40.8408757 C41.3919929,39.9197152 42.2167944,38.9310428 42.949188,37.8833777 L44.9786995,39.3276341 C44.1724473,40.4809515 43.2579226,41.5807656 42.2351255,42.6127065 C32.5732563,52.3609526 16.9082712,52.3609526 7.24640192,42.6127065 C-2.41546731,32.8644604 -2.41546731,17.0594307 7.24640192,7.31118457 C16.9082712,-2.43706152 32.5732563,-2.43706152 42.2351255,7.31118457 C43.2481365,8.33325183 44.154937,9.42189974 44.9555272,10.5631668 Z" id="Outer"></path>
                            <path d="M24.6454177,32.6878866 C20.3636483,32.6878866 16.8925884,29.1857955 16.8925884,24.8657471 C16.8925884,20.5456988 20.3636483,17.0436077 24.6454177,17.0436077 C28.9271872,17.0436077 32.3982471,20.5456988 32.3982471,24.8657471 C32.3982471,29.1857955 28.9271872,32.6878866 24.6454177,32.6878866 Z" id="Inner" fill-rule="nonzero"></path>
                        </g>
                        <rect id="Axle" x="23" y="23" width="18" height="4" rx="2"></rect>
                        <g id="Right" transform="translate(39.000000, 0.000000)" fill-rule="nonzero">
                            <path d="M24.9619455,47.4181439 C37.3641614,47.4181439 47.4181439,37.3641614 47.4181439,24.9619455 C47.4181439,12.5597296 37.3641614,2.50574713 24.9619455,2.50574713 C12.5597296,2.50574713 2.50574713,12.5597296 2.50574713,24.9619455 C2.50574713,37.3641614 12.5597296,47.4181439 24.9619455,47.4181439 Z M24.9619455,49.923891 C11.1758437,49.923891 0,38.7480474 0,24.9619455 C0,11.1758437 11.1758437,0 24.9619455,0 C38.7480474,0 49.923891,11.1758437 49.923891,24.9619455 C49.923891,38.7480474 38.7480474,49.923891 24.9619455,49.923891 Z" id="Outer"></path>
                            <path d="M25.0635188,32.8856583 C20.7434704,32.8856583 17.2413793,29.3835671 17.2413793,25.0635188 C17.2413793,20.7434704 20.7434704,17.2413793 25.0635188,17.2413793 C29.3835671,17.2413793 32.8856583,20.7434704 32.8856583,25.0635188 C32.8856583,29.3835671 29.3835671,32.8856583 25.0635188,32.8856583 Z M25.0635188,30.3792454 C27.9993135,30.3792454 30.3792454,27.9993135 30.3792454,25.0635188 C30.3792454,22.1277241 27.9993135,19.7477922 25.0635188,19.7477922 C22.1277241,19.7477922 19.7477922,22.1277241 19.7477922,25.0635188 C19.7477922,27.9993135 22.1277241,30.3792454 25.0635188,30.3792454 Z" id="Inner"></path>
                        </g>
                    </g>
                </g>
            </g>
        </g>
    </g>
</svg>